<svg width="300" height="337" viewBox="0 0 300 337" fill="none" xmlns="http://www.w3.org/2000/svg">
<path d="M300 106.702L255.779 174.815L249.19 163.379L286.334 106.702L300 106.702Z" fill="white"/>
<path d="M300 106.702H221.896L219.147 111.238L191.307 62.9193L230.422 0L300 106.702Z" fill="white"/>
<path d="M151.001 313.203L209.999 223.179L217.066 234.444L151.001 336.203L151.001 313.203Z" fill="white"/>
<path d="M151 224.202L180.166 175.62L150.572 128.443L121.287 175.55L123.872 179.739L151 224.202Z" fill="white"/>
<path d="M109.086 62.3074L70.2499 0.396767L0 106.702L44.5194 174.366L51.6156 162.05L15.2239 106.702H79.31L81.4682 110.239L109.086 62.3074Z" fill="white"/>
<path d="M84.37 234.933L151 336.202L151 313.202L91.7412 223.076L84.37 234.933Z" fill="white"/>
</svg>
