<svg width="882" height="262" viewBox="0 0 882 262" fill="none" xmlns="http://www.w3.org/2000/svg">
<path d="M233.084 82.8743L198.738 135.777L193.62 126.895L222.47 82.8745L233.084 82.8743Z" fill="white"/>
<path d="M233.084 82.8743H172.421L170.287 86.3975L148.663 48.8688L179.043 0L233.084 82.8743Z" fill="white"/>
<path d="M117.358 243.261L163.181 173.341L168.67 182.09L117.358 261.125L117.358 243.261Z" fill="white"/>
<path d="M117.357 174.135L140.01 136.402L117.025 99.7604L94.2795 136.348L96.287 139.601L117.357 174.135Z" fill="white"/>
<path d="M84.803 48.3935L54.6395 0.308165L0.0771484 82.8743L34.6549 135.428L40.1664 125.862L11.9014 82.8743H61.6764L63.3526 85.6216L84.803 48.3935Z" fill="white"/>
<path d="M65.6065 182.47L117.357 261.124L117.357 243.261L71.3316 173.261L65.6065 182.47Z" fill="white"/>
<path d="M338.564 181.562H268.604V97.9225H338.564V116.522H294.164V130.082H336.284V148.802H294.164V162.962H338.564V181.562ZM399.875 181.562H373.955V118.922H344.435V97.9225H429.155V118.922H399.875V181.562ZM461.156 181.562H435.596V97.9225H461.156V128.162H497.156V97.9225H522.716V181.562H497.156V150.723H461.156V181.562ZM603.876 181.562H533.916V97.9225H603.876V116.522H559.476V130.082H601.596V148.802H559.476V162.962H603.876V181.562ZM680.907 150.362L700.587 181.562H671.907L655.707 153.242H639.747V181.562H614.307V97.9225H660.267C679.707 97.9225 697.347 101.882 697.347 125.042C697.347 139.562 690.747 146.882 680.907 150.362ZM659.187 116.522H639.747V134.522H659.187C663.987 134.522 671.667 134.282 671.667 125.282C671.667 116.762 664.107 116.522 659.187 116.522ZM777.431 181.562H707.471V97.9225H777.431V116.522H733.031V130.082H775.151V148.802H733.031V162.962H777.431V181.562ZM881.102 181.562H853.142L848.342 168.362H814.502L809.582 181.562H781.742L818.102 97.9225H844.982L881.102 181.562ZM831.542 122.642L821.462 149.642H841.502L831.542 122.642Z" fill="white"/>
</svg>
