<svg width="660" height="503" viewBox="0 0 660 503" fill="none" xmlns="http://www.w3.org/2000/svg">
<path d="M480 106.702L435.779 174.815L429.19 163.379L466.334 106.702L480 106.702Z" fill="white"/>
<path d="M480 106.702H401.896L399.147 111.238L371.307 62.9193L410.422 0L480 106.702Z" fill="white"/>
<path d="M331.001 313.203L389.999 223.179L397.066 234.444L331.001 336.203L331.001 313.203Z" fill="white"/>
<path d="M331 224.202L360.166 175.62L330.572 128.443L301.287 175.55L303.872 179.739L331 224.202Z" fill="white"/>
<path d="M289.086 62.3074L250.25 0.396767L180 106.702L224.519 174.366L231.616 162.05L195.224 106.702H259.31L261.468 110.239L289.086 62.3074Z" fill="white"/>
<path d="M264.37 234.933L331 336.202L331 313.202L271.741 223.076L264.37 234.933Z" fill="white"/>
<path d="M80.512 464H5.888V374.784H80.512V394.624H33.152V409.088H78.08V429.056H33.152V444.16H80.512V464ZM145.91 464H118.262V397.184H86.774V374.784H177.142V397.184H145.91V464ZM211.277 464H184.013V374.784H211.277V407.04H249.677V374.784H276.941V464H249.677V431.104H211.277V464ZM363.512 464H288.888V374.784H363.512V394.624H316.152V409.088H361.08V429.056H316.152V444.16H363.512V464ZM445.678 430.72L466.67 464H436.078L418.798 433.792H401.774V464H374.638V374.784H423.662C444.398 374.784 463.214 379.008 463.214 403.712C463.214 419.2 456.174 427.008 445.678 430.72ZM422.51 394.624H401.774V413.824H422.51C427.63 413.824 435.822 413.568 435.822 403.968C435.822 394.88 427.758 394.624 422.51 394.624ZM548.637 464H474.013V374.784H548.637V394.624H501.277V409.088H546.205V429.056H501.277V444.16H548.637V464ZM659.219 464H629.395L624.275 449.92H588.179L582.931 464H553.235L592.019 374.784H620.691L659.219 464ZM606.355 401.152L595.603 429.952H616.979L606.355 401.152Z" fill="white"/>
</svg>
